<svg id="Capa_1" enable-background="new 0 0 510 510" height="512" viewBox="0 0 510 510" width="512" xmlns="http://www.w3.org/2000/svg"><g><path d="m397.5 85c-42.642 0-81.814 24.995-99.795 63.677l-3.149 6.773 78.212 147.016 7.381 1.171c5.699.904 11.537 1.363 17.351 1.363 60.654 0 110-49.346 110-110s-49.346-110-110-110z" fill="#ffdb00"/><path d="m147.7 58.893v-4.893c0-29.445-23.955-53.4-53.4-53.4-29.445 0-53.4 23.955-53.4 53.4v6.345c-22.165 6.498-38.4 27.016-38.4 51.255 0 29.445 23.955 53.4 53.4 53.4h83.2c29.445 0 53.4-23.955 53.4-53.4 0-26.517-19.43-48.582-44.8-52.707z" fill="#edf5ff"/><path d="m212.474 0-124.974 302.02v27.98h180v-330z" fill="#d5e8fe"/><path d="m290.993 90h-53.493v240h180v-29.154z" fill="#b5dbff"/><path d="m252.5 0 15 385h-30v-385z" fill="#e99b62"/><path d="m252.5 0h15v385h-15z" fill="#c37e4e"/><path d="m252.5 360 15 150h-110.04c-39.06 0-76.78-16.34-103.49-44.84l-.8-.85-40.67-59.69v-44.62z" fill="#1982bf"/><path d="m492.5 360v44.62l-40.67 59.69-.8.85c-26.71 28.5-64.43 44.84-103.49 44.84h-95.04v-150z" fill="#1766a0"/><path d="m147.5 420h30v30h-30z" fill="#ffdb00"/><path d="m207.5 420h30v30h-30z" fill="#ffdb00"/><g fill="#ffb01c"><path d="m267.5 420h30v30h-30z"/><path d="m327.5 420h30v30h-30z"/></g></g></svg>